PathFileType	4	(X/Y/Z)	Patient4_TMGait_0pt4_02_right_02.trc.trc
DataRate	CameraRate	NumFrames	NumMarkers	Units	OrigDataRate	OrigDataStartFrame	OrigNumFrames
73.684210526316	73.684210526316	4	33	mm	73.684210526316	89	       141
Frame#	Time	Sacral			L.Shoulder			Chest			R.Shoulder			Neck			R.ASIS			L.ASIS			R.Thigh.Superior			R.Thigh.Lateral			R.Thigh.Inferior			R.Patella			L.Thigh.Superior			L.Thigh.Lateral			L.Thigh.Inferior			L.Patella			L.Shank.Superior			L.Shank.Lateral			L.Shank.Inferior			R.Shank.Superior			R.Shank.Lateral			R.Shank.Inferior			R.Heel			R.Midfoot.Superior			R.Midfoot.Lateral			R.Toe			L.Heel			L.Midfoot.Lateral			L.Midfoot.Superior			L.Toe			L.Elbow			L.Wrist			R.Elbow			R.Wrist			
		X1	Y1	Z1	X2	Y2	Z2	X3	Y3	Z3	X4	Y4	Z4	X5	Y5	Z5	X6	Y6	Z6	X7	Y7	Z7	X8	Y8	Z8	X9	Y9	Z9	X10	Y10	Z10	X11	Y11	Z11	X12	Y12	Z12	X13	Y13	Z13	X14	Y14	Z14	X15	Y15	Z15	X16	Y16	Z16	X17	Y17	Z17	X18	Y18	Z18	X19	Y19	Z19	X20	Y20	Z20	X21	Y21	Z21	X22	Y22	Z22	X23	Y23	Z23	X24	Y24	Z24	X25	Y25	Z25	X26	Y26	Z26	X27	Y27	Z27	X28	Y28	Z28	X29	Y29	Z29	X30	Y30	Z30	X31	Y31	Z31	X32	Y32	Z32	X33	Y33	Z33	

89	3.094285714286	871.755762296982	1002.616142390286	466.494899535791	1027.681734934570	1432.200282199106	261.792680932201	1148.746764124491	1369.060821027802	411.901033558106	1081.719751423428	1443.183532879257	592.421961428247	1024.195040430087	1494.566630794129	417.266903546797	1109.785405970264	941.039676655634	561.164282675827	1073.632945539053	963.989579337591	290.269613484159	1155.534541122163	739.986470543307	537.500377149751	1087.767616536760	628.831704128208	610.921941826382	1164.715999236030	572.919375714811	531.381013707604	1163.009740970413	465.543310322068	554.076992490458	1142.649748156332	760.078416141797	323.553680186877	1066.665722856229	635.725997377045	266.219955880864	1158.417037400777	566.671979774039	329.891542157967	1164.836888495795	496.752304424036	339.865325951641	1140.572511060996	422.739111815917	331.312879524106	1056.203286096153	305.700689619481	279.088326166349	1109.757704809859	195.623981392508	349.472799841970	1089.688405574040	394.595972329561	563.753661928357	974.373221472459	347.114395706974	629.291113568494	963.243714551305	238.574062524900	578.558015830918	764.388034559402	159.268964730683	560.169709213767	937.707104509412	118.386928300169	592.090235470405	831.939316230549	105.981456242758	630.254309031871	1014.592282917095	32.941394487966	612.281295864573	985.585990759537	38.541458731861	388.360147087485	1059.360211730315	36.127143581802	307.677048650664	1142.178587562427	97.140557016785	335.465829554950	1270.939384447257	45.350094509056	305.778827124692	978.277288065734	1082.929397360302	145.156711088295	1079.416977921124	839.365039679288	144.019341410473	1155.619827343124	1098.245301829307	701.310732991565	1352.213152028310	940.078071589013	641.652208387268	
90	3.107857142857	870.499429294958	1002.099092324920	462.633753889951	1028.831525281982	1432.351898280361	259.374464382163	1148.214560797540	1368.879088637909	410.678812720345	1079.329345272483	1442.497305129327	590.731756505989	1023.640309908179	1494.486219553118	414.922486561918	1108.302890958963	941.038265478427	558.913809546269	1073.802120829850	963.956109627638	287.833834795299	1160.055979147270	742.996454052007	535.253010213550	1096.087550488724	630.352944531435	609.285255365602	1175.208363923562	576.169526561751	530.230048997258	1175.376719249618	467.882021337745	553.176041585339	1141.834829601385	759.339332676586	321.301967275041	1065.391540818322	635.400646795406	263.936298280749	1156.430945771147	565.991232487194	328.108049370278	1162.377395170239	495.997730975253	338.298171067598	1137.710069612821	421.910613829180	329.970481040624	1052.807060620698	305.197375103285	278.003911580342	1105.222329713566	195.108045852105	349.048433056286	1100.653766366615	397.077517372566	562.876633449813	983.811839060964	353.278851886100	628.519708334595	969.858767546858	244.783050685435	578.709658834518	769.118209448894	174.790773168613	560.796742157006	940.025213732600	123.361183245799	592.398542431429	833.495812047264	117.321906579925	630.611747271680	1010.640515954398	31.899368465443	612.169192405529	980.123931197317	38.501257386984	388.290144543960	1053.888478526873	36.049958552343	307.579978009470	1136.799078257455	97.000642702610	335.427075746775	1265.567338099237	44.944340408406	305.752554627865	985.055303589752	1083.482840367379	139.247289704342	1094.705812447284	843.489355799924	139.753236018588	1147.227088415259	1096.181641110005	699.979723083736	1335.027245876513	924.420623135755	647.312897917285	
91	3.121428571429	869.225848519682	1001.549441415464	458.955880509852	1029.852864915989	1432.457517843242	257.165349596501	1147.612402583279	1368.644125640210	409.597778871845	1076.939620944346	1441.725103420887	589.212810002169	1023.091277577465	1494.356586129259	412.808951802000	1106.814701748169	941.055371206410	556.786278496576	1073.847522387873	963.883086733762	285.488487446751	1164.297236494521	746.226900333572	533.019033631861	1104.060344695568	632.204558813024	607.666795564396	1185.232206911085	579.883561722984	529.054896363849	1187.411838185729	470.776299042061	552.090926913377	1141.012042405264	758.643629393239	319.044763968712	1064.060547346173	635.060812151208	261.720675080260	1154.490128217388	565.309328797421	326.270898634376	1159.993117984526	495.241282035773	336.691638532629	1134.898470434274	421.077684538923	328.611978624388	1049.408776775615	304.715680727699	276.891255717748	1100.685287197589	194.599626626543	348.574877246645	1111.501161513972	399.979057923757	561.839606074711	993.411391984309	359.566752244984	627.700699091984	976.825887149389	251.184311999900	578.709171156242	774.719976530301	189.952865081224	561.269074343517	943.037815057852	128.803185436201	592.569397924369	836.013323843383	128.733093759581	630.858485166847	1007.593255083205	31.046212951004	612.056228012096	974.683452902039	38.473763929045	388.202737396645	1048.438025818544	35.976723031380	307.464837407655	1131.427322669658	96.882582533756	335.349609818598	1260.207859015077	44.600433853535	305.712048510432	992.041514954335	1084.119740136569	133.501600895430	1110.028247516341	848.015314951195	135.691726952895	1138.211767979558	1094.051857671404	698.768876320321	1316.457824789088	909.781163174395	653.235721663057	
92	3.135000000000	867.978160150220	1001.023248645953	455.482042507910	1030.746894106230	1432.569427076383	255.163523555820	1146.952941788843	1368.411337478887	408.647410625106	1074.575261198744	1440.933864968968	587.852184245835	1022.565540182404	1494.224223307949	410.929666202951	1105.346248180870	941.158637157621	554.794455845556	1073.796722621257	963.804254282644	283.246006071353	1168.156300304131	749.655547547257	530.814564017771	1111.522126933250	634.390511576882	606.071902000642	1194.596981083364	584.026664000199	527.848323069247	1198.929810190117	474.188901820631	550.879652503430	1140.176108208731	757.980505822692	316.759427771343	1062.617311540779	634.715261970162	259.605876584475	1152.544789400062	564.618219822400	324.397415541039	1157.633048538549	494.488506515093	335.070491552623	1132.089424151317	420.259311084927	327.256803205911	1045.962066089589	304.271047319779	275.765546737211	1096.130177796344	194.111416630354	348.053489859806	1122.051519393535	403.266354482997	560.702966233882	1002.967629762793	365.835245732696	626.834603044721	984.066492210735	257.581480789949	578.566132637258	781.067426934292	204.115377434499	561.545165027550	946.842055382168	134.491145632222	592.593637351905	839.546554366122	139.704054247409	630.969280583289	1005.858337633693	30.526841843158	611.943177483849	969.258475314219	38.462601119336	388.100322179209	1043.003661028339	35.906699137278	307.335228867432	1126.060240636359	96.784204503706	335.231626912471	1254.855263442461	44.311927920870	305.658107787318	999.195719302142	1084.885117918755	127.989064231856	1125.294668266623	852.965934983721	131.850569055311	1128.574681370581	1091.969440048581	697.720984463438	1296.616369966275	896.317792695731	659.338770462934	
